<svg width="71" height="16" viewBox="0 0 71 16" fill="none" xmlns="http://www.w3.org/2000/svg">
<path d="M9.35225 12.606H4.34825L3.52025 15H0.87425L5.39225 2.418H8.32625L12.8443 15H10.1803L9.35225 12.606ZM8.66825 10.59L6.85025 5.334L5.03225 10.59H8.66825ZM17.053 1.68V15H14.533V1.68H17.053ZM22.0628 1.68V15H19.5428V1.68H22.0628ZM25.8305 3.84C25.3865 3.84 25.0145 3.702 24.7145 3.426C24.4265 3.138 24.2825 2.784 24.2825 2.364C24.2825 1.944 24.4265 1.596 24.7145 1.32C25.0145 1.032 25.3865 0.887999 25.8305 0.887999C26.2745 0.887999 26.6405 1.032 26.9285 1.32C27.2285 1.596 27.3785 1.944 27.3785 2.364C27.3785 2.784 27.2285 3.138 26.9285 3.426C26.6405 3.702 26.2745 3.84 25.8305 3.84ZM27.0725 5.028V15H24.5525V5.028H27.0725ZM38.8323 9.798C38.8323 10.158 38.8083 10.482 38.7603 10.77H31.4703C31.5303 11.49 31.7823 12.054 32.2263 12.462C32.6703 12.87 33.2163 13.074 33.8643 13.074C34.8003 13.074 35.4663 12.672 35.8623 11.868H38.5803C38.2923 12.828 37.7403 13.62 36.9243 14.244C36.1083 14.856 35.1063 15.162 33.9183 15.162C32.9583 15.162 32.0943 14.952 31.3263 14.532C30.5703 14.1 29.9763 13.494 29.5443 12.714C29.1243 11.934 28.9143 11.034 28.9143 10.014C28.9143 8.982 29.1243 8.076 29.5443 7.296C29.9643 6.516 30.5523 5.916 31.3083 5.496C32.0643 5.076 32.9343 4.866 33.9183 4.866C34.8663 4.866 35.7123 5.07 36.4563 5.478C37.2123 5.886 37.7943 6.468 38.2023 7.224C38.6223 7.968 38.8323 8.826 38.8323 9.798ZM36.2223 9.078C36.2103 8.43 35.9763 7.914 35.5203 7.53C35.0643 7.134 34.5063 6.936 33.8463 6.936C33.2223 6.936 32.6943 7.128 32.2623 7.512C31.8423 7.884 31.5843 8.406 31.4883 9.078H36.2223ZM40.0237 9.978C40.0237 8.97 40.2217 8.076 40.6177 7.296C41.0257 6.516 41.5777 5.916 42.2737 5.496C42.9697 5.076 43.7437 4.866 44.5957 4.866C45.2437 4.866 45.8617 5.01 46.4497 5.298C47.0377 5.574 47.5057 5.946 47.8537 6.414V1.68H50.4097V15H47.8537V13.524C47.5417 14.016 47.1037 14.412 46.5397 14.712C45.9757 15.012 45.3217 15.162 44.5777 15.162C43.7377 15.162 42.9697 14.946 42.2737 14.514C41.5777 14.082 41.0257 13.476 40.6177 12.696C40.2217 11.904 40.0237 10.998 40.0237 9.978ZM47.8717 10.014C47.8717 9.402 47.7517 8.88 47.5117 8.448C47.2717 8.004 46.9477 7.668 46.5397 7.44C46.1317 7.2 45.6937 7.08 45.2257 7.08C44.7577 7.08 44.3257 7.194 43.9297 7.422C43.5337 7.65 43.2097 7.986 42.9577 8.43C42.7177 8.862 42.5977 9.378 42.5977 9.978C42.5977 10.578 42.7177 11.106 42.9577 11.562C43.2097 12.006 43.5337 12.348 43.9297 12.588C44.3377 12.828 44.7697 12.948 45.2257 12.948C45.6937 12.948 46.1317 12.834 46.5397 12.606C46.9477 12.366 47.2717 12.03 47.5117 11.598C47.7517 11.154 47.8717 10.626 47.8717 10.014Z" fill="#F48023"/>
<path d="M59.68 2.436V15H57.16V2.436H59.68ZM70.7197 2.436V4.47H67.3717V15H64.8517V4.47H61.5037V2.436H70.7197Z" fill="#FBFBFB"/>
</svg>
